<svg xmlns="http://www.w3.org/2000/svg" width="900" height="366" viewBox="0 0 900 366" fill="none"><path d="M60.1625 334.269C62.5092 334.269 64.5678 334.728 66.3385 335.645C68.1305 336.562 69.5065 337.874 70.4665 339.581C71.4478 341.266 71.9385 343.229 71.9385 345.469C71.9385 347.709 71.4478 349.672 70.4665 351.357C69.5065 353.021 68.1305 354.312 66.3385 355.229C64.5678 356.146 62.5092 356.605 60.1625 356.605H52.3545V334.269H60.1625ZM60.0025 352.797C62.3492 352.797 64.1625 352.157 65.4425 350.877C66.7225 349.597 67.3625 347.794 67.3625 345.469C67.3625 343.144 66.7225 341.33 65.4425 340.029C64.1625 338.706 62.3492 338.045 60.0025 338.045H56.8345V352.797H60.0025ZM77.564 336.765C76.7747 336.765 76.1133 336.52 75.58 336.029C75.068 335.517 74.812 334.888 74.812 334.141C74.812 333.394 75.068 332.776 75.58 332.285C76.1133 331.773 76.7747 331.517 77.564 331.517C78.3533 331.517 79.004 331.773 79.516 332.285C80.0493 332.776 80.316 333.394 80.316 334.141C80.316 334.888 80.0493 335.517 79.516 336.029C79.004 336.52 78.3533 336.765 77.564 336.765ZM79.772 338.877V356.605H75.292V338.877H79.772ZM90.9822 356.893C89.5316 356.893 88.2302 356.637 87.0782 356.125C85.9262 355.592 85.0089 354.877 84.3262 353.981C83.6649 353.085 83.3022 352.093 83.2382 351.005H87.7502C87.8356 351.688 88.1662 352.253 88.7422 352.701C89.3396 353.149 90.0756 353.373 90.9502 353.373C91.8036 353.373 92.4649 353.202 92.9342 352.861C93.4249 352.52 93.6702 352.082 93.6702 351.549C93.6702 350.973 93.3716 350.546 92.7742 350.269C92.1982 349.97 91.2702 349.65 89.9902 349.309C88.6676 348.989 87.5796 348.658 86.7262 348.317C85.8942 347.976 85.1689 347.453 84.5502 346.749C83.9529 346.045 83.6542 345.096 83.6542 343.901C83.6542 342.92 83.9316 342.024 84.4862 341.213C85.0622 340.402 85.8729 339.762 86.9182 339.293C87.9849 338.824 89.2329 338.589 90.6622 338.589C92.7742 338.589 94.4596 339.122 95.7182 340.189C96.9769 341.234 97.6702 342.653 97.7982 344.445H93.5102C93.4462 343.741 93.1476 343.186 92.6142 342.781C92.1022 342.354 91.4089 342.141 90.5342 342.141C89.7236 342.141 89.0942 342.29 88.6462 342.589C88.2196 342.888 88.0062 343.304 88.0062 343.837C88.0062 344.434 88.3049 344.893 88.9022 345.213C89.4996 345.512 90.4276 345.821 91.6862 346.141C92.9662 346.461 94.0222 346.792 94.8542 347.133C95.6862 347.474 96.4009 348.008 96.9982 348.733C97.6169 349.437 97.9369 350.376 97.9582 351.549C97.9582 352.573 97.6702 353.49 97.0942 354.301C96.5396 355.112 95.7289 355.752 94.6622 356.221C93.6169 356.669 92.3902 356.893 90.9822 356.893ZM100.484 347.741C100.484 345.906 100.857 344.306 101.604 342.941C102.35 341.554 103.385 340.488 104.708 339.741C106.03 338.973 107.545 338.589 109.252 338.589C111.449 338.589 113.262 339.144 114.692 340.253C116.142 341.341 117.113 342.877 117.604 344.861H112.772C112.516 344.093 112.078 343.496 111.46 343.069C110.862 342.621 110.116 342.397 109.22 342.397C107.94 342.397 106.926 342.866 106.18 343.805C105.433 344.722 105.06 346.034 105.06 347.741C105.06 349.426 105.433 350.738 106.18 351.677C106.926 352.594 107.94 353.053 109.22 353.053C111.033 353.053 112.217 352.242 112.772 350.621H117.604C117.113 352.541 116.142 354.066 114.692 355.197C113.241 356.328 111.428 356.893 109.252 356.893C107.545 356.893 106.03 356.52 104.708 355.773C103.385 355.005 102.35 353.938 101.604 352.573C100.857 351.186 100.484 349.576 100.484 347.741ZM128.758 356.893C127.051 356.893 125.515 356.52 124.15 355.773C122.784 355.005 121.707 353.928 120.918 352.541C120.15 351.154 119.766 349.554 119.766 347.741C119.766 345.928 120.16 344.328 120.95 342.941C121.76 341.554 122.859 340.488 124.246 339.741C125.632 338.973 127.179 338.589 128.886 338.589C130.592 338.589 132.139 338.973 133.526 339.741C134.912 340.488 136 341.554 136.79 342.941C137.6 344.328 138.006 345.928 138.006 347.741C138.006 349.554 137.59 351.154 136.758 352.541C135.947 353.928 134.838 355.005 133.43 355.773C132.043 356.52 130.486 356.893 128.758 356.893ZM128.758 352.989C129.568 352.989 130.326 352.797 131.03 352.413C131.755 352.008 132.331 351.41 132.758 350.621C133.184 349.832 133.398 348.872 133.398 347.741C133.398 346.056 132.95 344.765 132.054 343.869C131.179 342.952 130.102 342.493 128.822 342.493C127.542 342.493 126.464 342.952 125.59 343.869C124.736 344.765 124.31 346.056 124.31 347.741C124.31 349.426 124.726 350.728 125.558 351.645C126.411 352.541 127.478 352.989 128.758 352.989ZM148.684 352.477L153.164 338.877H157.932L151.372 356.605H145.932L139.404 338.877H144.204L148.684 352.477ZM176.928 347.357C176.928 347.997 176.886 348.573 176.8 349.085H163.84C163.947 350.365 164.395 351.368 165.184 352.093C165.974 352.818 166.944 353.181 168.096 353.181C169.76 353.181 170.944 352.466 171.648 351.037H176.48C175.968 352.744 174.987 354.152 173.536 355.261C172.086 356.349 170.304 356.893 168.192 356.893C166.486 356.893 164.95 356.52 163.584 355.773C162.24 355.005 161.184 353.928 160.416 352.541C159.67 351.154 159.296 349.554 159.296 347.741C159.296 345.906 159.67 344.296 160.416 342.909C161.163 341.522 162.208 340.456 163.552 339.709C164.896 338.962 166.443 338.589 168.192 338.589C169.878 338.589 171.382 338.952 172.704 339.677C174.048 340.402 175.083 341.437 175.808 342.781C176.555 344.104 176.928 345.629 176.928 347.357ZM172.288 346.077C172.267 344.925 171.851 344.008 171.04 343.325C170.23 342.621 169.238 342.269 168.064 342.269C166.955 342.269 166.016 342.61 165.248 343.293C164.502 343.954 164.043 344.882 163.872 346.077H172.288ZM184.678 341.629C185.254 340.69 186.001 339.954 186.918 339.421C187.857 338.888 188.924 338.621 190.118 338.621V343.325H188.934C187.526 343.325 186.46 343.656 185.734 344.317C185.03 344.978 184.678 346.13 184.678 347.773V356.605H180.198V338.877H184.678V341.629Z" fill="#121212"></path><path d="M60.1625 334.269C62.5092 334.269 64.5678 334.728 66.3385 335.645C68.1305 336.562 69.5065 337.874 70.4665 339.581C71.4478 341.266 71.9385 343.229 71.9385 345.469C71.9385 347.709 71.4478 349.672 70.4665 351.357C69.5065 353.021 68.1305 354.312 66.3385 355.229C64.5678 356.146 62.5092 356.605 60.1625 356.605H52.3545V334.269H60.1625ZM60.0025 352.797C62.3492 352.797 64.1625 352.157 65.4425 350.877C66.7225 349.597 67.3625 347.794 67.3625 345.469C67.3625 343.144 66.7225 341.33 65.4425 340.029C64.1625 338.706 62.3492 338.045 60.0025 338.045H56.8345V352.797H60.0025ZM77.564 336.765C76.7747 336.765 76.1133 336.52 75.58 336.029C75.068 335.517 74.812 334.888 74.812 334.141C74.812 333.394 75.068 332.776 75.58 332.285C76.1133 331.773 76.7747 331.517 77.564 331.517C78.3533 331.517 79.004 331.773 79.516 332.285C80.0493 332.776 80.316 333.394 80.316 334.141C80.316 334.888 80.0493 335.517 79.516 336.029C79.004 336.52 78.3533 336.765 77.564 336.765ZM79.772 338.877V356.605H75.292V338.877H79.772ZM90.9822 356.893C89.5316 356.893 88.2302 356.637 87.0782 356.125C85.9262 355.592 85.0089 354.877 84.3262 353.981C83.6649 353.085 83.3022 352.093 83.2382 351.005H87.7502C87.8356 351.688 88.1662 352.253 88.7422 352.701C89.3396 353.149 90.0756 353.373 90.9502 353.373C91.8036 353.373 92.4649 353.202 92.9342 352.861C93.4249 352.52 93.6702 352.082 93.6702 351.549C93.6702 350.973 93.3716 350.546 92.7742 350.269C92.1982 349.97 91.2702 349.65 89.9902 349.309C88.6676 348.989 87.5796 348.658 86.7262 348.317C85.8942 347.976 85.1689 347.453 84.5502 346.749C83.9529 346.045 83.6542 345.096 83.6542 343.901C83.6542 342.92 83.9316 342.024 84.4862 341.213C85.0622 340.402 85.8729 339.762 86.9182 339.293C87.9849 338.824 89.2329 338.589 90.6622 338.589C92.7742 338.589 94.4596 339.122 95.7182 340.189C96.9769 341.234 97.6702 342.653 97.7982 344.445H93.5102C93.4462 343.741 93.1476 343.186 92.6142 342.781C92.1022 342.354 91.4089 342.141 90.5342 342.141C89.7236 342.141 89.0942 342.29 88.6462 342.589C88.2196 342.888 88.0062 343.304 88.0062 343.837C88.0062 344.434 88.3049 344.893 88.9022 345.213C89.4996 345.512 90.4276 345.821 91.6862 346.141C92.9662 346.461 94.0222 346.792 94.8542 347.133C95.6862 347.474 96.4009 348.008 96.9982 348.733C97.6169 349.437 97.9369 350.376 97.9582 351.549C97.9582 352.573 97.6702 353.49 97.0942 354.301C96.5396 355.112 95.7289 355.752 94.6622 356.221C93.6169 356.669 92.3902 356.893 90.9822 356.893ZM100.484 347.741C100.484 345.906 100.857 344.306 101.604 342.941C102.35 341.554 103.385 340.488 104.708 339.741C106.03 338.973 107.545 338.589 109.252 338.589C111.449 338.589 113.262 339.144 114.692 340.253C116.142 341.341 117.113 342.877 117.604 344.861H112.772C112.516 344.093 112.078 343.496 111.46 343.069C110.862 342.621 110.116 342.397 109.22 342.397C107.94 342.397 106.926 342.866 106.18 343.805C105.433 344.722 105.06 346.034 105.06 347.741C105.06 349.426 105.433 350.738 106.18 351.677C106.926 352.594 107.94 353.053 109.22 353.053C111.033 353.053 112.217 352.242 112.772 350.621H117.604C117.113 352.541 116.142 354.066 114.692 355.197C113.241 356.328 111.428 356.893 109.252 356.893C107.545 356.893 106.03 356.52 104.708 355.773C103.385 355.005 102.35 353.938 101.604 352.573C100.857 351.186 100.484 349.576 100.484 347.741ZM128.758 356.893C127.051 356.893 125.515 356.52 124.15 355.773C122.784 355.005 121.707 353.928 120.918 352.541C120.15 351.154 119.766 349.554 119.766 347.741C119.766 345.928 120.16 344.328 120.95 342.941C121.76 341.554 122.859 340.488 124.246 339.741C125.632 338.973 127.179 338.589 128.886 338.589C130.592 338.589 132.139 338.973 133.526 339.741C134.912 340.488 136 341.554 136.79 342.941C137.6 344.328 138.006 345.928 138.006 347.741C138.006 349.554 137.59 351.154 136.758 352.541C135.947 353.928 134.838 355.005 133.43 355.773C132.043 356.52 130.486 356.893 128.758 356.893ZM128.758 352.989C129.568 352.989 130.326 352.797 131.03 352.413C131.755 352.008 132.331 351.41 132.758 350.621C133.184 349.832 133.398 348.872 133.398 347.741C133.398 346.056 132.95 344.765 132.054 343.869C131.179 342.952 130.102 342.493 128.822 342.493C127.542 342.493 126.464 342.952 125.59 343.869C124.736 344.765 124.31 346.056 124.31 347.741C124.31 349.426 124.726 350.728 125.558 351.645C126.411 352.541 127.478 352.989 128.758 352.989ZM148.684 352.477L153.164 338.877H157.932L151.372 356.605H145.932L139.404 338.877H144.204L148.684 352.477ZM176.928 347.357C176.928 347.997 176.886 348.573 176.8 349.085H163.84C163.947 350.365 164.395 351.368 165.184 352.093C165.974 352.818 166.944 353.181 168.096 353.181C169.76 353.181 170.944 352.466 171.648 351.037H176.48C175.968 352.744 174.987 354.152 173.536 355.261C172.086 356.349 170.304 356.893 168.192 356.893C166.486 356.893 164.95 356.52 163.584 355.773C162.24 355.005 161.184 353.928 160.416 352.541C159.67 351.154 159.296 349.554 159.296 347.741C159.296 345.906 159.67 344.296 160.416 342.909C161.163 341.522 162.208 340.456 163.552 339.709C164.896 338.962 166.443 338.589 168.192 338.589C169.878 338.589 171.382 338.952 172.704 339.677C174.048 340.402 175.083 341.437 175.808 342.781C176.555 344.104 176.928 345.629 176.928 347.357ZM172.288 346.077C172.267 344.925 171.851 344.008 171.04 343.325C170.23 342.621 169.238 342.269 168.064 342.269C166.955 342.269 166.016 342.61 165.248 343.293C164.502 343.954 164.043 344.882 163.872 346.077H172.288ZM184.678 341.629C185.254 340.69 186.001 339.954 186.918 339.421C187.857 338.888 188.924 338.621 190.118 338.621V343.325H188.934C187.526 343.325 186.46 343.656 185.734 344.317C185.03 344.978 184.678 346.13 184.678 347.773V356.605H180.198V338.877H184.678V341.629Z" fill="black" fill-opacity="0.2"></path><path d="M294.719 6.664C297.066 6.664 299.124 7.12267 300.895 8.04C302.687 8.95733 304.063 10.2693 305.023 11.976C306.004 13.6613 306.495 15.624 306.495 17.864C306.495 20.104 306.004 22.0667 305.023 23.752C304.063 25.416 302.687 26.7067 300.895 27.624C299.124 28.5413 297.066 29 294.719 29H286.911V6.664H294.719ZM294.559 25.192C296.906 25.192 298.719 24.552 299.999 23.272C301.279 21.992 301.919 20.1893 301.919 17.864C301.919 15.5387 301.279 13.7253 299.999 12.424C298.719 11.1013 296.906 10.44 294.559 10.44H291.391V25.192H294.559ZM326.329 19.752C326.329 20.392 326.286 20.968 326.201 21.48H313.241C313.347 22.76 313.795 23.7627 314.585 24.488C315.374 25.2133 316.345 25.576 317.497 25.576C319.161 25.576 320.345 24.8613 321.049 23.432H325.881C325.369 25.1387 324.387 26.5467 322.937 27.656C321.486 28.744 319.705 29.288 317.593 29.288C315.886 29.288 314.35 28.9147 312.985 28.168C311.641 27.4 310.585 26.3227 309.817 24.936C309.07 23.5493 308.697 21.9493 308.697 20.136C308.697 18.3013 309.07 16.6907 309.817 15.304C310.563 13.9173 311.609 12.8507 312.953 12.104C314.297 11.3573 315.843 10.984 317.593 10.984C319.278 10.984 320.782 11.3467 322.105 12.072C323.449 12.7973 324.483 13.832 325.209 15.176C325.955 16.4987 326.329 18.024 326.329 19.752ZM321.689 18.472C321.667 17.32 321.251 16.4027 320.441 15.72C319.63 15.016 318.638 14.664 317.465 14.664C316.355 14.664 315.417 15.0053 314.649 15.688C313.902 16.3493 313.443 17.2773 313.273 18.472H321.689ZM336.383 29.288C334.932 29.288 333.631 29.032 332.479 28.52C331.327 27.9867 330.409 27.272 329.727 26.376C329.065 25.48 328.703 24.488 328.639 23.4H333.151C333.236 24.0827 333.567 24.648 334.143 25.096C334.74 25.544 335.476 25.768 336.351 25.768C337.204 25.768 337.865 25.5973 338.335 25.256C338.825 24.9147 339.071 24.4773 339.071 23.944C339.071 23.368 338.772 22.9413 338.175 22.664C337.599 22.3653 336.671 22.0453 335.391 21.704C334.068 21.384 332.98 21.0533 332.127 20.712C331.295 20.3707 330.569 19.848 329.951 19.144C329.353 18.44 329.055 17.4907 329.055 16.296C329.055 15.3147 329.332 14.4187 329.887 13.608C330.463 12.7973 331.273 12.1573 332.319 11.688C333.385 11.2187 334.633 10.984 336.063 10.984C338.175 10.984 339.86 11.5173 341.119 12.584C342.377 13.6293 343.071 15.048 343.199 16.84H338.911C338.847 16.136 338.548 15.5813 338.015 15.176C337.503 14.7493 336.809 14.536 335.935 14.536C335.124 14.536 334.495 14.6853 334.047 14.984C333.62 15.2827 333.407 15.6987 333.407 16.232C333.407 16.8293 333.705 17.288 334.303 17.608C334.9 17.9067 335.828 18.216 337.087 18.536C338.367 18.856 339.423 19.1867 340.255 19.528C341.087 19.8693 341.801 20.4027 342.399 21.128C343.017 21.832 343.337 22.7707 343.359 23.944C343.359 24.968 343.071 25.8853 342.495 26.696C341.94 27.5067 341.129 28.1467 340.063 28.616C339.017 29.064 337.791 29.288 336.383 29.288ZM349.308 9.16C348.519 9.16 347.857 8.91467 347.324 8.424C346.812 7.912 346.556 7.28267 346.556 6.536C346.556 5.78933 346.812 5.17067 347.324 4.68C347.857 4.168 348.519 3.912 349.308 3.912C350.097 3.912 350.748 4.168 351.26 4.68C351.793 5.17067 352.06 5.78933 352.06 6.536C352.06 7.28267 351.793 7.912 351.26 8.424C350.748 8.91467 350.097 9.16 349.308 9.16ZM351.516 11.272V29H347.036V11.272H351.516ZM362.886 10.984C364.209 10.984 365.372 11.2507 366.374 11.784C367.377 12.296 368.166 12.968 368.742 13.8V11.272H373.254V29.128C373.254 30.7707 372.924 32.232 372.262 33.512C371.601 34.8133 370.609 35.8373 369.286 36.584C367.964 37.352 366.364 37.736 364.486 37.736C361.969 37.736 359.9 37.1493 358.278 35.976C356.678 34.8027 355.772 33.2027 355.558 31.176H360.006C360.241 31.9867 360.742 32.6267 361.51 33.096C362.3 33.5867 363.249 33.832 364.358 33.832C365.66 33.832 366.716 33.4373 367.526 32.648C368.337 31.88 368.742 30.7067 368.742 29.128V26.376C368.166 27.208 367.366 27.9013 366.342 28.456C365.34 29.0107 364.188 29.288 362.886 29.288C361.393 29.288 360.028 28.904 358.79 28.136C357.553 27.368 356.572 26.2907 355.846 24.904C355.142 23.496 354.79 21.8853 354.79 20.072C354.79 18.28 355.142 16.6907 355.846 15.304C356.572 13.9173 357.542 12.8507 358.758 12.104C359.996 11.3573 361.372 10.984 362.886 10.984ZM368.742 20.136C368.742 19.048 368.529 18.12 368.102 17.352C367.676 16.5627 367.1 15.9653 366.374 15.56C365.649 15.1333 364.87 14.92 364.038 14.92C363.206 14.92 362.438 15.1227 361.734 15.528C361.03 15.9333 360.454 16.5307 360.006 17.32C359.58 18.088 359.366 19.0053 359.366 20.072C359.366 21.1387 359.58 22.0773 360.006 22.888C360.454 23.6773 361.03 24.2853 361.734 24.712C362.46 25.1387 363.228 25.352 364.038 25.352C364.87 25.352 365.649 25.1493 366.374 24.744C367.1 24.3173 367.676 23.72 368.102 22.952C368.529 22.1627 368.742 21.224 368.742 20.136ZM387.454 11.016C389.566 11.016 391.273 11.688 392.574 13.032C393.875 14.3547 394.526 16.2107 394.526 18.6V29H390.046V19.208C390.046 17.8 389.694 16.7227 388.99 15.976C388.286 15.208 387.326 14.824 386.11 14.824C384.873 14.824 383.891 15.208 383.166 15.976C382.462 16.7227 382.11 17.8 382.11 19.208V29H377.63V11.272H382.11V13.48C382.707 12.712 383.465 12.1147 384.382 11.688C385.321 11.24 386.345 11.016 387.454 11.016Z" fill="#121212"></path><path d="M294.719 6.664C297.066 6.664 299.124 7.12267 300.895 8.04C302.687 8.95733 304.063 10.2693 305.023 11.976C306.004 13.6613 306.495 15.624 306.495 17.864C306.495 20.104 306.004 22.0667 305.023 23.752C304.063 25.416 302.687 26.7067 300.895 27.624C299.124 28.5413 297.066 29 294.719 29H286.911V6.664H294.719ZM294.559 25.192C296.906 25.192 298.719 24.552 299.999 23.272C301.279 21.992 301.919 20.1893 301.919 17.864C301.919 15.5387 301.279 13.7253 299.999 12.424C298.719 11.1013 296.906 10.44 294.559 10.44H291.391V25.192H294.559ZM326.329 19.752C326.329 20.392 326.286 20.968 326.201 21.48H313.241C313.347 22.76 313.795 23.7627 314.585 24.488C315.374 25.2133 316.345 25.576 317.497 25.576C319.161 25.576 320.345 24.8613 321.049 23.432H325.881C325.369 25.1387 324.387 26.5467 322.937 27.656C321.486 28.744 319.705 29.288 317.593 29.288C315.886 29.288 314.35 28.9147 312.985 28.168C311.641 27.4 310.585 26.3227 309.817 24.936C309.07 23.5493 308.697 21.9493 308.697 20.136C308.697 18.3013 309.07 16.6907 309.817 15.304C310.563 13.9173 311.609 12.8507 312.953 12.104C314.297 11.3573 315.843 10.984 317.593 10.984C319.278 10.984 320.782 11.3467 322.105 12.072C323.449 12.7973 324.483 13.832 325.209 15.176C325.955 16.4987 326.329 18.024 326.329 19.752ZM321.689 18.472C321.667 17.32 321.251 16.4027 320.441 15.72C319.63 15.016 318.638 14.664 317.465 14.664C316.355 14.664 315.417 15.0053 314.649 15.688C313.902 16.3493 313.443 17.2773 313.273 18.472H321.689ZM336.383 29.288C334.932 29.288 333.631 29.032 332.479 28.52C331.327 27.9867 330.409 27.272 329.727 26.376C329.065 25.48 328.703 24.488 328.639 23.4H333.151C333.236 24.0827 333.567 24.648 334.143 25.096C334.74 25.544 335.476 25.768 336.351 25.768C337.204 25.768 337.865 25.5973 338.335 25.256C338.825 24.9147 339.071 24.4773 339.071 23.944C339.071 23.368 338.772 22.9413 338.175 22.664C337.599 22.3653 336.671 22.0453 335.391 21.704C334.068 21.384 332.98 21.0533 332.127 20.712C331.295 20.3707 330.569 19.848 329.951 19.144C329.353 18.44 329.055 17.4907 329.055 16.296C329.055 15.3147 329.332 14.4187 329.887 13.608C330.463 12.7973 331.273 12.1573 332.319 11.688C333.385 11.2187 334.633 10.984 336.063 10.984C338.175 10.984 339.86 11.5173 341.119 12.584C342.377 13.6293 343.071 15.048 343.199 16.84H338.911C338.847 16.136 338.548 15.5813 338.015 15.176C337.503 14.7493 336.809 14.536 335.935 14.536C335.124 14.536 334.495 14.6853 334.047 14.984C333.62 15.2827 333.407 15.6987 333.407 16.232C333.407 16.8293 333.705 17.288 334.303 17.608C334.9 17.9067 335.828 18.216 337.087 18.536C338.367 18.856 339.423 19.1867 340.255 19.528C341.087 19.8693 341.801 20.4027 342.399 21.128C343.017 21.832 343.337 22.7707 343.359 23.944C343.359 24.968 343.071 25.8853 342.495 26.696C341.94 27.5067 341.129 28.1467 340.063 28.616C339.017 29.064 337.791 29.288 336.383 29.288ZM349.308 9.16C348.519 9.16 347.857 8.91467 347.324 8.424C346.812 7.912 346.556 7.28267 346.556 6.536C346.556 5.78933 346.812 5.17067 347.324 4.68C347.857 4.168 348.519 3.912 349.308 3.912C350.097 3.912 350.748 4.168 351.26 4.68C351.793 5.17067 352.06 5.78933 352.06 6.536C352.06 7.28267 351.793 7.912 351.26 8.424C350.748 8.91467 350.097 9.16 349.308 9.16ZM351.516 11.272V29H347.036V11.272H351.516ZM362.886 10.984C364.209 10.984 365.372 11.2507 366.374 11.784C367.377 12.296 368.166 12.968 368.742 13.8V11.272H373.254V29.128C373.254 30.7707 372.924 32.232 372.262 33.512C371.601 34.8133 370.609 35.8373 369.286 36.584C367.964 37.352 366.364 37.736 364.486 37.736C361.969 37.736 359.9 37.1493 358.278 35.976C356.678 34.8027 355.772 33.2027 355.558 31.176H360.006C360.241 31.9867 360.742 32.6267 361.51 33.096C362.3 33.5867 363.249 33.832 364.358 33.832C365.66 33.832 366.716 33.4373 367.526 32.648C368.337 31.88 368.742 30.7067 368.742 29.128V26.376C368.166 27.208 367.366 27.9013 366.342 28.456C365.34 29.0107 364.188 29.288 362.886 29.288C361.393 29.288 360.028 28.904 358.79 28.136C357.553 27.368 356.572 26.2907 355.846 24.904C355.142 23.496 354.79 21.8853 354.79 20.072C354.79 18.28 355.142 16.6907 355.846 15.304C356.572 13.9173 357.542 12.8507 358.758 12.104C359.996 11.3573 361.372 10.984 362.886 10.984ZM368.742 20.136C368.742 19.048 368.529 18.12 368.102 17.352C367.676 16.5627 367.1 15.9653 366.374 15.56C365.649 15.1333 364.87 14.92 364.038 14.92C363.206 14.92 362.438 15.1227 361.734 15.528C361.03 15.9333 360.454 16.5307 360.006 17.32C359.58 18.088 359.366 19.0053 359.366 20.072C359.366 21.1387 359.58 22.0773 360.006 22.888C360.454 23.6773 361.03 24.2853 361.734 24.712C362.46 25.1387 363.228 25.352 364.038 25.352C364.87 25.352 365.649 25.1493 366.374 24.744C367.1 24.3173 367.676 23.72 368.102 22.952C368.529 22.1627 368.742 21.224 368.742 20.136ZM387.454 11.016C389.566 11.016 391.273 11.688 392.574 13.032C393.875 14.3547 394.526 16.2107 394.526 18.6V29H390.046V19.208C390.046 17.8 389.694 16.7227 388.99 15.976C388.286 15.208 387.326 14.824 386.11 14.824C384.873 14.824 383.891 15.208 383.166 15.976C382.462 16.7227 382.11 17.8 382.11 19.208V29H377.63V11.272H382.11V13.48C382.707 12.712 383.465 12.1147 384.382 11.688C385.321 11.24 386.345 11.016 387.454 11.016Z" fill="black" fill-opacity="0.2"></path><path d="M516.168 334.269C518.515 334.269 520.574 334.728 522.344 335.645C524.136 336.562 525.512 337.874 526.472 339.581C527.454 341.266 527.944 343.229 527.944 345.469C527.944 347.709 527.454 349.672 526.472 351.357C525.512 353.021 524.136 354.312 522.344 355.229C520.574 356.146 518.515 356.605 516.168 356.605H508.36V334.269H516.168ZM516.008 352.797C518.355 352.797 520.168 352.157 521.448 350.877C522.728 349.597 523.368 347.794 523.368 345.469C523.368 343.144 522.728 341.33 521.448 340.029C520.168 338.706 518.355 338.045 516.008 338.045H512.84V352.797H516.008ZM547.778 347.357C547.778 347.997 547.735 348.573 547.65 349.085H534.69C534.797 350.365 535.245 351.368 536.034 352.093C536.823 352.818 537.794 353.181 538.946 353.181C540.61 353.181 541.794 352.466 542.498 351.037H547.33C546.818 352.744 545.837 354.152 544.386 355.261C542.935 356.349 541.154 356.893 539.042 356.893C537.335 356.893 535.799 356.52 534.434 355.773C533.09 355.005 532.034 353.928 531.266 352.541C530.519 351.154 530.146 349.554 530.146 347.741C530.146 345.906 530.519 344.296 531.266 342.909C532.013 341.522 533.058 340.456 534.402 339.709C535.746 338.962 537.293 338.589 539.042 338.589C540.727 338.589 542.231 338.952 543.554 339.677C544.898 340.402 545.933 341.437 546.658 342.781C547.405 344.104 547.778 345.629 547.778 347.357ZM543.138 346.077C543.117 344.925 542.701 344.008 541.89 343.325C541.079 342.621 540.087 342.269 538.914 342.269C537.805 342.269 536.866 342.61 536.098 343.293C535.351 343.954 534.893 344.882 534.722 346.077H543.138ZM555.528 341.437C556.104 340.626 556.893 339.954 557.896 339.421C558.92 338.866 560.083 338.589 561.384 338.589C562.899 338.589 564.264 338.962 565.48 339.709C566.717 340.456 567.688 341.522 568.392 342.909C569.117 344.274 569.48 345.864 569.48 347.677C569.48 349.49 569.117 351.101 568.392 352.509C567.688 353.896 566.717 354.973 565.48 355.741C564.264 356.509 562.899 356.893 561.384 356.893C560.083 356.893 558.931 356.626 557.928 356.093C556.947 355.56 556.147 354.888 555.528 354.077V365.053H551.048V338.877H555.528V341.437ZM564.904 347.677C564.904 346.61 564.68 345.693 564.232 344.925C563.805 344.136 563.229 343.538 562.504 343.133C561.8 342.728 561.032 342.525 560.2 342.525C559.389 342.525 558.621 342.738 557.896 343.165C557.192 343.57 556.616 344.168 556.168 344.957C555.741 345.746 555.528 346.674 555.528 347.741C555.528 348.808 555.741 349.736 556.168 350.525C556.616 351.314 557.192 351.922 557.896 352.349C558.621 352.754 559.389 352.957 560.2 352.957C561.032 352.957 561.8 352.744 562.504 352.317C563.229 351.89 563.805 351.282 564.232 350.493C564.68 349.704 564.904 348.765 564.904 347.677ZM577.215 332.925V356.605H572.735V332.925H577.215ZM589.514 356.893C587.807 356.893 586.271 356.52 584.906 355.773C583.54 355.005 582.463 353.928 581.674 352.541C580.906 351.154 580.522 349.554 580.522 347.741C580.522 345.928 580.916 344.328 581.706 342.941C582.516 341.554 583.615 340.488 585.002 339.741C586.388 338.973 587.935 338.589 589.642 338.589C591.348 338.589 592.895 338.973 594.282 339.741C595.668 340.488 596.756 341.554 597.546 342.941C598.356 344.328 598.762 345.928 598.762 347.741C598.762 349.554 598.346 351.154 597.514 352.541C596.703 353.928 595.594 355.005 594.186 355.773C592.799 356.52 591.242 356.893 589.514 356.893ZM589.514 352.989C590.324 352.989 591.082 352.797 591.786 352.413C592.511 352.008 593.087 351.41 593.514 350.621C593.94 349.832 594.154 348.872 594.154 347.741C594.154 346.056 593.706 344.765 592.81 343.869C591.935 342.952 590.858 342.493 589.578 342.493C588.298 342.493 587.22 342.952 586.346 343.869C585.492 344.765 585.066 346.056 585.066 347.741C585.066 349.426 585.482 350.728 586.314 351.645C587.167 352.541 588.234 352.989 589.514 352.989ZM619.008 338.877L608.032 364.989H603.264L607.104 356.157L600 338.877H605.024L609.6 351.261L614.24 338.877H619.008Z" fill="#121212"></path><path d="M516.168 334.269C518.515 334.269 520.574 334.728 522.344 335.645C524.136 336.562 525.512 337.874 526.472 339.581C527.454 341.266 527.944 343.229 527.944 345.469C527.944 347.709 527.454 349.672 526.472 351.357C525.512 353.021 524.136 354.312 522.344 355.229C520.574 356.146 518.515 356.605 516.168 356.605H508.36V334.269H516.168ZM516.008 352.797C518.355 352.797 520.168 352.157 521.448 350.877C522.728 349.597 523.368 347.794 523.368 345.469C523.368 343.144 522.728 341.33 521.448 340.029C520.168 338.706 518.355 338.045 516.008 338.045H512.84V352.797H516.008ZM547.778 347.357C547.778 347.997 547.735 348.573 547.65 349.085H534.69C534.797 350.365 535.245 351.368 536.034 352.093C536.823 352.818 537.794 353.181 538.946 353.181C540.61 353.181 541.794 352.466 542.498 351.037H547.33C546.818 352.744 545.837 354.152 544.386 355.261C542.935 356.349 541.154 356.893 539.042 356.893C537.335 356.893 535.799 356.52 534.434 355.773C533.09 355.005 532.034 353.928 531.266 352.541C530.519 351.154 530.146 349.554 530.146 347.741C530.146 345.906 530.519 344.296 531.266 342.909C532.013 341.522 533.058 340.456 534.402 339.709C535.746 338.962 537.293 338.589 539.042 338.589C540.727 338.589 542.231 338.952 543.554 339.677C544.898 340.402 545.933 341.437 546.658 342.781C547.405 344.104 547.778 345.629 547.778 347.357ZM543.138 346.077C543.117 344.925 542.701 344.008 541.89 343.325C541.079 342.621 540.087 342.269 538.914 342.269C537.805 342.269 536.866 342.61 536.098 343.293C535.351 343.954 534.893 344.882 534.722 346.077H543.138ZM555.528 341.437C556.104 340.626 556.893 339.954 557.896 339.421C558.92 338.866 560.083 338.589 561.384 338.589C562.899 338.589 564.264 338.962 565.48 339.709C566.717 340.456 567.688 341.522 568.392 342.909C569.117 344.274 569.48 345.864 569.48 347.677C569.48 349.49 569.117 351.101 568.392 352.509C567.688 353.896 566.717 354.973 565.48 355.741C564.264 356.509 562.899 356.893 561.384 356.893C560.083 356.893 558.931 356.626 557.928 356.093C556.947 355.56 556.147 354.888 555.528 354.077V365.053H551.048V338.877H555.528V341.437ZM564.904 347.677C564.904 346.61 564.68 345.693 564.232 344.925C563.805 344.136 563.229 343.538 562.504 343.133C561.8 342.728 561.032 342.525 560.2 342.525C559.389 342.525 558.621 342.738 557.896 343.165C557.192 343.57 556.616 344.168 556.168 344.957C555.741 345.746 555.528 346.674 555.528 347.741C555.528 348.808 555.741 349.736 556.168 350.525C556.616 351.314 557.192 351.922 557.896 352.349C558.621 352.754 559.389 352.957 560.2 352.957C561.032 352.957 561.8 352.744 562.504 352.317C563.229 351.89 563.805 351.282 564.232 350.493C564.68 349.704 564.904 348.765 564.904 347.677ZM577.215 332.925V356.605H572.735V332.925H577.215ZM589.514 356.893C587.807 356.893 586.271 356.52 584.906 355.773C583.54 355.005 582.463 353.928 581.674 352.541C580.906 351.154 580.522 349.554 580.522 347.741C580.522 345.928 580.916 344.328 581.706 342.941C582.516 341.554 583.615 340.488 585.002 339.741C586.388 338.973 587.935 338.589 589.642 338.589C591.348 338.589 592.895 338.973 594.282 339.741C595.668 340.488 596.756 341.554 597.546 342.941C598.356 344.328 598.762 345.928 598.762 347.741C598.762 349.554 598.346 351.154 597.514 352.541C596.703 353.928 595.594 355.005 594.186 355.773C592.799 356.52 591.242 356.893 589.514 356.893ZM589.514 352.989C590.324 352.989 591.082 352.797 591.786 352.413C592.511 352.008 593.087 351.41 593.514 350.621C593.94 349.832 594.154 348.872 594.154 347.741C594.154 346.056 593.706 344.765 592.81 343.869C591.935 342.952 590.858 342.493 589.578 342.493C588.298 342.493 587.22 342.952 586.346 343.869C585.492 344.765 585.066 346.056 585.066 347.741C585.066 349.426 585.482 350.728 586.314 351.645C587.167 352.541 588.234 352.989 589.514 352.989ZM619.008 338.877L608.032 364.989H603.264L607.104 356.157L600 338.877H605.024L609.6 351.261L614.24 338.877H619.008Z" fill="black" fill-opacity="0.2"></path><path d="M698.461 6.664C700.808 6.664 702.867 7.12267 704.637 8.04C706.429 8.95733 707.805 10.2693 708.765 11.976C709.747 13.6613 710.237 15.624 710.237 17.864C710.237 20.104 709.747 22.0667 708.765 23.752C707.805 25.416 706.429 26.7067 704.637 27.624C702.867 28.5413 700.808 29 698.461 29H690.653V6.664H698.461ZM698.301 25.192C700.648 25.192 702.461 24.552 703.741 23.272C705.021 21.992 705.661 20.1893 705.661 17.864C705.661 15.5387 705.021 13.7253 703.741 12.424C702.461 11.1013 700.648 10.44 698.301 10.44H695.133V25.192H698.301ZM718.071 14.024C718.647 13.0853 719.393 12.3493 720.311 11.816C721.249 11.2827 722.316 11.016 723.511 11.016V15.72H722.327C720.919 15.72 719.852 16.0507 719.127 16.712C718.423 17.3733 718.071 18.5253 718.071 20.168V29H713.591V11.272H718.071V14.024ZM728.8 9.16C728.011 9.16 727.35 8.91467 726.816 8.424C726.304 7.912 726.048 7.28267 726.048 6.536C726.048 5.78933 726.304 5.17067 726.816 4.68C727.35 4.168 728.011 3.912 728.8 3.912C729.59 3.912 730.24 4.168 730.752 4.68C731.286 5.17067 731.552 5.78933 731.552 6.536C731.552 7.28267 731.286 7.912 730.752 8.424C730.24 8.91467 729.59 9.16 728.8 9.16ZM731.008 11.272V29H726.528V11.272H731.008ZM742.827 24.872L747.307 11.272H752.075L745.515 29H740.075L733.547 11.272H738.347L742.827 24.872ZM771.071 19.752C771.071 20.392 771.028 20.968 770.943 21.48H757.983C758.089 22.76 758.537 23.7627 759.327 24.488C760.116 25.2133 761.087 25.576 762.239 25.576C763.903 25.576 765.087 24.8613 765.791 23.432H770.623C770.111 25.1387 769.129 26.5467 767.679 27.656C766.228 28.744 764.447 29.288 762.335 29.288C760.628 29.288 759.092 28.9147 757.727 28.168C756.383 27.4 755.327 26.3227 754.559 24.936C753.812 23.5493 753.439 21.9493 753.439 20.136C753.439 18.3013 753.812 16.6907 754.559 15.304C755.305 13.9173 756.351 12.8507 757.695 12.104C759.039 11.3573 760.585 10.984 762.335 10.984C764.02 10.984 765.524 11.3467 766.847 12.072C768.191 12.7973 769.225 13.832 769.951 15.176C770.697 16.4987 771.071 18.024 771.071 19.752ZM766.431 18.472C766.409 17.32 765.993 16.4027 765.183 15.72C764.372 15.016 763.38 14.664 762.207 14.664C761.097 14.664 760.159 15.0053 759.391 15.688C758.644 16.3493 758.185 17.2773 758.015 18.472H766.431ZM802.03 6.664L793.838 29H788.398L780.206 6.664H785.006L791.15 24.424L797.262 6.664H802.03ZM803.564 20.072C803.564 18.28 803.916 16.6907 804.62 15.304C805.345 13.9173 806.316 12.8507 807.532 12.104C808.769 11.3573 810.145 10.984 811.66 10.984C812.982 10.984 814.134 11.2507 815.116 11.784C816.118 12.3173 816.918 12.9893 817.516 13.8V11.272H822.028V29H817.516V26.408C816.94 27.24 816.14 27.9333 815.116 28.488C814.113 29.0213 812.95 29.288 811.628 29.288C810.134 29.288 808.769 28.904 807.532 28.136C806.316 27.368 805.345 26.2907 804.62 24.904C803.916 23.496 803.564 21.8853 803.564 20.072ZM817.516 20.136C817.516 19.048 817.302 18.12 816.876 17.352C816.449 16.5627 815.873 15.9653 815.148 15.56C814.422 15.1333 813.644 14.92 812.812 14.92C811.98 14.92 811.212 15.1227 810.508 15.528C809.804 15.9333 809.228 16.5307 808.78 17.32C808.353 18.088 808.14 19.0053 808.14 20.072C808.14 21.1387 808.353 22.0773 808.78 22.888C809.228 23.6773 809.804 24.2853 810.508 24.712C811.233 25.1387 812.001 25.352 812.812 25.352C813.644 25.352 814.422 25.1493 815.148 24.744C815.873 24.3173 816.449 23.72 816.876 22.952C817.302 22.1627 817.516 21.224 817.516 20.136ZM830.883 5.32V29H826.403V5.32H830.883ZM852.046 11.272V29H847.534V26.76C846.958 27.528 846.2 28.136 845.262 28.584C844.344 29.0107 843.342 29.224 842.254 29.224C840.867 29.224 839.64 28.936 838.574 28.36C837.507 27.7627 836.664 26.8987 836.046 25.768C835.448 24.616 835.15 23.2507 835.15 21.672V11.272H839.63V21.032C839.63 22.44 839.982 23.528 840.686 24.296C841.39 25.0427 842.35 25.416 843.566 25.416C844.803 25.416 845.774 25.0427 846.478 24.296C847.182 23.528 847.534 22.44 847.534 21.032V11.272H852.046ZM872.946 19.752C872.946 20.392 872.903 20.968 872.818 21.48H859.858C859.964 22.76 860.412 23.7627 861.202 24.488C861.991 25.2133 862.962 25.576 864.114 25.576C865.778 25.576 866.962 24.8613 867.666 23.432H872.498C871.986 25.1387 871.004 26.5467 869.554 27.656C868.103 28.744 866.322 29.288 864.21 29.288C862.503 29.288 860.967 28.9147 859.602 28.168C858.258 27.4 857.202 26.3227 856.434 24.936C855.687 23.5493 855.314 21.9493 855.314 20.136C855.314 18.3013 855.687 16.6907 856.434 15.304C857.18 13.9173 858.226 12.8507 859.57 12.104C860.914 11.3573 862.46 10.984 864.21 10.984C865.895 10.984 867.399 11.3467 868.722 12.072C870.066 12.7973 871.1 13.832 871.826 15.176C872.572 16.4987 872.946 18.024 872.946 19.752ZM868.306 18.472C868.284 17.32 867.868 16.4027 867.058 15.72C866.247 15.016 865.255 14.664 864.082 14.664C862.972 14.664 862.034 15.0053 861.266 15.688C860.519 16.3493 860.06 17.2773 859.89 18.472H868.306Z" fill="#121212"></path><path d="M698.461 6.664C700.808 6.664 702.867 7.12267 704.637 8.04C706.429 8.95733 707.805 10.2693 708.765 11.976C709.747 13.6613 710.237 15.624 710.237 17.864C710.237 20.104 709.747 22.0667 708.765 23.752C707.805 25.416 706.429 26.7067 704.637 27.624C702.867 28.5413 700.808 29 698.461 29H690.653V6.664H698.461ZM698.301 25.192C700.648 25.192 702.461 24.552 703.741 23.272C705.021 21.992 705.661 20.1893 705.661 17.864C705.661 15.5387 705.021 13.7253 703.741 12.424C702.461 11.1013 700.648 10.44 698.301 10.44H695.133V25.192H698.301ZM718.071 14.024C718.647 13.0853 719.393 12.3493 720.311 11.816C721.249 11.2827 722.316 11.016 723.511 11.016V15.72H722.327C720.919 15.72 719.852 16.0507 719.127 16.712C718.423 17.3733 718.071 18.5253 718.071 20.168V29H713.591V11.272H718.071V14.024ZM728.8 9.16C728.011 9.16 727.35 8.91467 726.816 8.424C726.304 7.912 726.048 7.28267 726.048 6.536C726.048 5.78933 726.304 5.17067 726.816 4.68C727.35 4.168 728.011 3.912 728.8 3.912C729.59 3.912 730.24 4.168 730.752 4.68C731.286 5.17067 731.552 5.78933 731.552 6.536C731.552 7.28267 731.286 7.912 730.752 8.424C730.24 8.91467 729.59 9.16 728.8 9.16ZM731.008 11.272V29H726.528V11.272H731.008ZM742.827 24.872L747.307 11.272H752.075L745.515 29H740.075L733.547 11.272H738.347L742.827 24.872ZM771.071 19.752C771.071 20.392 771.028 20.968 770.943 21.48H757.983C758.089 22.76 758.537 23.7627 759.327 24.488C760.116 25.2133 761.087 25.576 762.239 25.576C763.903 25.576 765.087 24.8613 765.791 23.432H770.623C770.111 25.1387 769.129 26.5467 767.679 27.656C766.228 28.744 764.447 29.288 762.335 29.288C760.628 29.288 759.092 28.9147 757.727 28.168C756.383 27.4 755.327 26.3227 754.559 24.936C753.812 23.5493 753.439 21.9493 753.439 20.136C753.439 18.3013 753.812 16.6907 754.559 15.304C755.305 13.9173 756.351 12.8507 757.695 12.104C759.039 11.3573 760.585 10.984 762.335 10.984C764.02 10.984 765.524 11.3467 766.847 12.072C768.191 12.7973 769.225 13.832 769.951 15.176C770.697 16.4987 771.071 18.024 771.071 19.752ZM766.431 18.472C766.409 17.32 765.993 16.4027 765.183 15.72C764.372 15.016 763.38 14.664 762.207 14.664C761.097 14.664 760.159 15.0053 759.391 15.688C758.644 16.3493 758.185 17.2773 758.015 18.472H766.431ZM802.03 6.664L793.838 29H788.398L780.206 6.664H785.006L791.15 24.424L797.262 6.664H802.03ZM803.564 20.072C803.564 18.28 803.916 16.6907 804.62 15.304C805.345 13.9173 806.316 12.8507 807.532 12.104C808.769 11.3573 810.145 10.984 811.66 10.984C812.982 10.984 814.134 11.2507 815.116 11.784C816.118 12.3173 816.918 12.9893 817.516 13.8V11.272H822.028V29H817.516V26.408C816.94 27.24 816.14 27.9333 815.116 28.488C814.113 29.0213 812.95 29.288 811.628 29.288C810.134 29.288 808.769 28.904 807.532 28.136C806.316 27.368 805.345 26.2907 804.62 24.904C803.916 23.496 803.564 21.8853 803.564 20.072ZM817.516 20.136C817.516 19.048 817.302 18.12 816.876 17.352C816.449 16.5627 815.873 15.9653 815.148 15.56C814.422 15.1333 813.644 14.92 812.812 14.92C811.98 14.92 811.212 15.1227 810.508 15.528C809.804 15.9333 809.228 16.5307 808.78 17.32C808.353 18.088 808.14 19.0053 808.14 20.072C808.14 21.1387 808.353 22.0773 808.78 22.888C809.228 23.6773 809.804 24.2853 810.508 24.712C811.233 25.1387 812.001 25.352 812.812 25.352C813.644 25.352 814.422 25.1493 815.148 24.744C815.873 24.3173 816.449 23.72 816.876 22.952C817.302 22.1627 817.516 21.224 817.516 20.136ZM830.883 5.32V29H826.403V5.32H830.883ZM852.046 11.272V29H847.534V26.76C846.958 27.528 846.2 28.136 845.262 28.584C844.344 29.0107 843.342 29.224 842.254 29.224C840.867 29.224 839.64 28.936 838.574 28.36C837.507 27.7627 836.664 26.8987 836.046 25.768C835.448 24.616 835.15 23.2507 835.15 21.672V11.272H839.63V21.032C839.63 22.44 839.982 23.528 840.686 24.296C841.39 25.0427 842.35 25.416 843.566 25.416C844.803 25.416 845.774 25.0427 846.478 24.296C847.182 23.528 847.534 22.44 847.534 21.032V11.272H852.046ZM872.946 19.752C872.946 20.392 872.903 20.968 872.818 21.48H859.858C859.964 22.76 860.412 23.7627 861.202 24.488C861.991 25.2133 862.962 25.576 864.114 25.576C865.778 25.576 866.962 24.8613 867.666 23.432H872.498C871.986 25.1387 871.004 26.5467 869.554 27.656C868.103 28.744 866.322 29.288 864.21 29.288C862.503 29.288 860.967 28.9147 859.602 28.168C858.258 27.4 857.202 26.3227 856.434 24.936C855.687 23.5493 855.314 21.9493 855.314 20.136C855.314 18.3013 855.687 16.6907 856.434 15.304C857.18 13.9173 858.226 12.8507 859.57 12.104C860.914 11.3573 862.46 10.984 864.21 10.984C865.895 10.984 867.399 11.3467 868.722 12.072C870.066 12.7973 871.1 13.832 871.826 15.176C872.572 16.4987 872.946 18.024 872.946 19.752ZM868.306 18.472C868.284 17.32 867.868 16.4027 867.058 15.72C866.247 15.016 865.255 14.664 864.082 14.664C862.972 14.664 862.034 15.0053 861.266 15.688C860.519 16.3493 860.06 17.2773 859.89 18.472H868.306Z" fill="black" fill-opacity="0.2"></path><path d="M233.65 176.183C233.772 191.837 230.87 207.321 225.112 221.831C219.354 236.342 210.852 249.554 200.091 260.712C189.329 271.87 176.52 280.755 162.393 286.862C148.266 292.968 133.099 296.175 117.757 296.3C102.416 296.426 87.2003 293.466 72.9797 287.591C58.759 281.716 45.8117 273.04 34.8769 262.059C23.9422 251.078 15.2341 238.006 9.24989 223.591C3.2657 209.176 0.122579 193.7 0 178.045L11.6824 177.95C11.7927 192.039 14.6215 205.968 20.0073 218.941C25.3931 231.915 33.2303 243.679 43.0716 253.562C52.9129 263.445 64.5655 271.253 77.3641 276.541C90.1627 281.829 103.857 284.492 117.664 284.38C131.471 284.267 145.122 281.381 157.836 275.885C170.55 270.389 182.079 262.392 191.764 252.35C201.449 242.308 209.101 230.417 214.283 217.358C219.465 204.298 222.15 190.272 222.04 176.183H233.65Z" fill="url(#paint0_radial_463_2183)"></path><circle cx="120.119" cy="176.183" r="90.0914" stroke="#6EA1FF" stroke-width="1.82003"></circle><path d="M222.04 176.183C222.815 145.008 235.569 115.089 257.499 93.3694C279.428 71.6501 308.825 59.5637 339.385 59.702C369.946 59.8404 399.236 72.1926 420.976 94.1097C442.716 116.027 455.408 145.913 455.913 177.093H444.083C443.629 149.031 432.331 122.315 412.765 102.59C393.199 82.8646 366.838 71.7477 339.333 71.6231C311.829 71.4986 285.372 82.3763 265.635 101.924C245.899 121.471 234.348 148.126 233.649 176.183H222.04Z" fill="#0C018B"></path><path d="M340.267 87.9038C389.969 87.9038 430.292 129.04 430.292 179.823C430.292 230.606 389.969 271.742 340.267 271.742C290.565 271.742 250.242 230.606 250.242 179.823C250.242 129.04 290.565 87.904 340.267 87.9038Z" stroke="#6EA1FF" stroke-width="1.80433"></path><g clip-path="url(#clip0_463_2183)"><path d="M376.949 141.651C375.837 140.533 374.348 139.869 372.773 139.79C371.197 139.711 369.649 140.222 368.43 141.223L346.023 159.526H308.129C304.675 159.526 301.865 162.336 301.865 165.788V203.54C301.865 206.992 304.675 209.801 308.129 209.801H325.93V215.171H321.984C320.689 215.171 319.638 216.222 319.638 217.517C319.638 218.813 320.689 219.863 321.984 219.863H347.088C348.383 219.863 349.434 218.813 349.434 217.517C349.434 216.222 348.383 215.171 347.088 215.171H343.142V209.801H360.943C364.397 209.801 367.207 206.992 367.207 203.54V162.634L377.38 150.168C378.38 148.949 378.89 147.401 378.81 145.826C378.731 144.252 378.067 142.763 376.949 141.651ZM344.512 168.916C344.584 167.502 345.228 166.231 346.328 165.335L350.231 162.147L356.463 168.379L353.268 172.295C352.373 173.389 351.102 174.03 349.691 174.101C348.278 174.172 346.951 173.66 345.952 172.66C344.951 171.66 344.439 170.33 344.512 168.916ZM342.628 184.052C341.588 185.092 339.857 185.57 337.482 185.475C335.682 185.403 334.141 185.529 332.835 185.765C333.07 184.459 333.196 182.916 333.124 181.117C333.029 178.743 333.508 177.011 334.547 175.972C335.626 174.893 337.061 174.298 338.587 174.298C340.114 174.298 341.548 174.893 342.628 175.972C344.855 178.2 344.855 181.824 342.628 184.052ZM362.515 203.54C362.515 204.405 361.81 205.11 360.943 205.11H308.129C307.262 205.11 306.557 204.405 306.557 203.54V201.538H362.515V203.54ZM362.515 196.846H306.557V165.788C306.557 164.923 307.262 164.218 308.129 164.218H341.187C340.385 165.559 339.907 167.087 339.826 168.677C339.809 169.013 339.81 169.349 339.827 169.682C339.416 169.632 339.002 169.607 338.588 169.606C335.808 169.606 333.195 170.689 331.23 172.654C329.226 174.658 328.286 177.568 328.436 181.306C328.636 186.28 326.987 188.277 326.859 188.424C325.981 189.343 325.993 190.8 326.897 191.703C327.114 191.921 327.373 192.094 327.657 192.212C327.942 192.33 328.247 192.391 328.555 192.39C329.159 192.391 329.739 192.159 330.175 191.741C330.322 191.613 332.319 189.964 337.294 190.163C341.032 190.314 343.942 189.374 345.946 187.37C348.287 185.029 349.274 181.841 348.913 178.783C349.091 178.793 349.268 178.799 349.447 178.799C349.606 178.799 349.766 178.795 349.925 178.787C352.638 178.652 355.18 177.368 356.901 175.264L362.515 168.384V196.846H362.515ZM330.214 191.703C330.214 191.703 330.202 191.716 330.178 191.739C330.19 191.727 330.202 191.715 330.214 191.703ZM326.896 188.385L326.861 188.422C326.884 188.397 326.896 188.385 326.896 188.385ZM373.744 147.202L359.445 164.725L353.883 159.164L371.398 144.857C371.718 144.594 372.124 144.461 372.537 144.481C372.949 144.502 373.34 144.676 373.632 144.969C373.925 145.26 374.099 145.651 374.119 146.064C374.14 146.476 374.007 146.882 373.744 147.202Z" fill="#0C018B"></path></g><path d="M444.084 176.183C444.084 207.8 456.61 237.212 478.52 259.568C500.429 281.925 530.145 294.484 561.129 294.484C592.114 294.484 621.83 281.925 643.739 259.568C665.648 237.212 677.957 206.89 677.957 175.273H666.127C666.127 203.728 655.197 231.018 635.478 251.139C615.76 271.26 589.016 282.563 561.129 282.563C533.243 282.563 506.499 271.26 486.781 251.139C467.062 231.018 455.914 204.638 455.914 176.183L444.084 176.183Z" fill="url(#paint1_radial_463_2183)"></path><circle cx="562.385" cy="176.183" r="90.0914" stroke="#6EA1FF" stroke-width="1.82003"></circle><g clip-path="url(#clip1_463_2183)"><path d="M602.332 142.12C602.159 138.939 599.629 136.41 596.448 136.236C590.029 135.885 577.469 136.227 565.458 142.439C559.336 145.606 552.861 150.975 547.693 157.17C547.629 157.246 547.567 157.323 547.504 157.4L535.777 158.305C533.846 158.455 532.127 159.467 531.059 161.081L523.058 173.183C522.249 174.408 522.12 175.94 522.714 177.283C523.308 178.625 524.528 179.561 525.979 179.786L535.86 181.316C535.825 181.508 535.79 181.7 535.758 181.892C535.429 183.86 536.081 185.883 537.502 187.304L551.264 201.066C552.443 202.245 554.035 202.894 555.666 202.894C556.004 202.894 556.342 202.866 556.676 202.81C556.868 202.778 557.06 202.743 557.252 202.708L558.782 212.589C559.007 214.04 559.943 215.261 561.285 215.854C561.832 216.097 562.424 216.223 563.023 216.224C563.863 216.223 564.685 215.975 565.385 215.51L577.487 207.509C579.102 206.441 580.113 204.722 580.262 202.792L581.168 191.064C581.245 191.001 581.322 190.939 581.398 190.875C587.593 185.708 592.963 179.232 596.129 173.11C602.342 161.099 602.682 148.539 602.332 142.12ZM574.899 203.595L563.323 211.248L561.832 201.619C566.724 200.18 571.564 197.877 576.174 194.79L575.584 202.43C575.567 202.664 575.496 202.89 575.377 203.092C575.259 203.294 575.095 203.466 574.899 203.595ZM554.582 197.749L540.819 183.986C540.468 183.634 540.306 183.141 540.386 182.666C540.795 180.219 541.431 177.89 542.218 175.696L562.868 196.346C560.233 197.29 557.872 197.853 555.902 198.182C555.426 198.262 554.933 198.1 554.582 197.749ZM536.138 162.984L543.778 162.394C540.691 167.004 538.387 171.844 536.949 176.737L527.32 175.245L534.973 163.669C535.102 163.473 535.274 163.31 535.476 163.191C535.678 163.072 535.904 163.001 536.138 162.984ZM578.393 187.272C574.602 190.433 570.923 192.72 567.532 194.375L544.193 171.035C546.36 166.608 549.005 162.922 551.296 160.176C556.078 154.442 562.026 149.497 567.614 146.606C578.637 140.905 590.251 140.598 596.192 140.921C596.572 140.941 596.93 141.101 597.199 141.37C597.467 141.638 597.627 141.997 597.647 142.376C597.971 148.318 597.663 159.931 591.962 170.954C589.071 176.542 584.126 182.49 578.393 187.272Z" fill="#0C018B"></path><path d="M577.2 173.093C580.204 173.092 583.208 171.949 585.495 169.662C587.711 167.447 588.931 164.501 588.931 161.368C588.931 158.235 587.71 155.289 585.495 153.073C580.921 148.499 573.479 148.5 568.906 153.073C566.69 155.289 565.47 158.235 565.47 161.368C565.47 164.501 566.69 167.447 568.906 169.662C571.193 171.949 574.196 173.093 577.2 173.093ZM524.738 202.137C525.338 202.137 525.939 201.908 526.397 201.45L534.057 193.79C534.973 192.874 534.973 191.388 534.057 190.472C533.14 189.556 531.655 189.556 530.739 190.472L523.079 198.132C522.163 199.048 522.163 200.533 523.079 201.45C523.297 201.668 523.555 201.841 523.84 201.959C524.125 202.077 524.43 202.137 524.738 202.137ZM541.076 197.492C540.16 196.575 538.675 196.575 537.758 197.492L523.032 212.218C522.116 213.135 522.116 214.62 523.032 215.536C523.49 215.994 524.09 216.223 524.691 216.223C525.291 216.223 525.892 215.994 526.35 215.536L541.076 200.81C541.993 199.893 541.993 198.408 541.076 197.492ZM544.778 204.511L537.118 212.171C536.202 213.087 536.202 214.573 537.118 215.489C537.576 215.947 538.177 216.176 538.777 216.176C539.378 216.176 539.978 215.947 540.436 215.489L548.096 207.829C549.012 206.913 549.012 205.428 548.096 204.511C547.18 203.595 545.694 203.595 544.778 204.511Z" fill="#0C018B"></path></g><g clip-path="url(#clip2_463_2183)"><path d="M89.3701 145.434C101.315 133.49 120.701 133.49 132.646 145.434C143.723 156.512 144.528 173.98 135.06 185.986L134.876 186.219L140.562 191.905L140.797 191.668L141.798 190.667C142.95 189.515 144.819 189.515 145.972 190.667L158.968 203.663V203.664C160.106 204.816 160.107 206.686 158.97 207.838L151.774 215.034C150.622 216.186 148.753 216.186 147.601 215.034L134.604 202.036C133.451 200.883 133.451 199.014 134.604 197.862L135.604 196.861L135.841 196.625L130.155 190.94L129.922 191.124C117.916 200.592 100.448 199.787 89.3701 188.709C77.4258 176.765 77.4257 157.378 89.3701 145.434ZM127.925 150.155C118.598 140.828 103.418 140.828 94.0908 150.155C84.7637 159.482 84.7638 174.662 94.0908 183.989C103.418 193.316 118.598 193.316 127.925 183.989C137.252 174.662 137.252 159.482 127.925 150.155Z" fill="#0C018B" stroke="#DAE6FF" stroke-width="0.667343"></path></g><path d="M666.126 176.182C666.902 145.007 679.656 115.088 701.585 93.3685C723.515 71.6491 752.912 59.5627 783.472 59.7011C814.033 59.8395 843.323 72.1916 865.063 94.1087C886.803 116.026 899.495 145.912 900 177.092H888.17C887.716 149.03 876.418 122.314 856.852 102.589C837.286 82.8636 810.925 71.7467 783.42 71.6221C755.916 71.4976 729.459 82.3754 709.722 101.923C689.986 121.47 678.435 148.125 677.736 176.182H666.126Z" fill="#6A9AFA"></path><circle cx="786.248" cy="176.183" r="90.0914" stroke="#6EA1FF" stroke-width="1.82003"></circle><path d="M822.259 182.983C819.968 179.881 815.681 178.922 812.282 180.757L800.164 187.304C799.503 186.378 798.63 185.623 797.618 185.102C796.607 184.581 795.485 184.308 794.347 184.307H787.443C786.934 184.309 786.432 184.18 785.988 183.931C785.543 183.683 785.17 183.324 784.905 182.89L782.814 179.497C781.829 177.913 780.458 176.605 778.829 175.696C777.201 174.787 775.368 174.306 773.502 174.3H757.412C755.105 174.302 752.893 175.219 751.262 176.851C749.631 178.482 748.713 180.694 748.711 183.001V198.545C748.713 200.852 749.631 203.064 751.262 204.696C752.893 206.327 755.105 207.244 757.412 207.247H764.132L781.668 212.875C783.388 213.428 785.208 213.6 787.002 213.381C788.795 213.161 790.52 212.555 792.056 211.604L820.093 194.249C821.941 193.105 823.237 191.224 823.647 189.091C824.057 186.957 823.552 184.731 822.261 182.985L822.259 182.983ZM762.021 202.24H757.412C756.432 202.239 755.493 201.85 754.8 201.157C754.107 200.464 753.717 199.524 753.716 198.544V183C753.717 182.02 754.107 181.08 754.8 180.387C755.493 179.694 756.432 179.304 757.412 179.303H762.021V202.24ZM818.731 188.144C818.66 188.524 818.51 188.885 818.291 189.203C818.072 189.521 817.788 189.79 817.458 189.992L789.421 207.347C788.501 207.918 787.468 208.282 786.393 208.413C785.318 208.545 784.228 208.441 783.197 208.109L767.025 202.919V179.305H773.502C775.547 179.305 777.483 180.384 778.554 182.124L780.643 185.515C781.355 186.679 782.355 187.64 783.546 188.305C784.737 188.97 786.08 189.317 787.444 189.312H794.348C794.922 189.313 795.471 189.541 795.877 189.946C796.282 190.352 796.51 190.901 796.511 191.474V194.145H783.665C783.001 194.145 782.365 194.408 781.896 194.878C781.426 195.347 781.163 195.984 781.163 196.647C781.163 197.311 781.426 197.947 781.896 198.417C782.365 198.886 783.001 199.15 783.665 199.15H799.013C799.677 199.15 800.313 198.886 800.783 198.417C801.252 197.947 801.516 197.311 801.516 196.647V192.267L814.664 185.163C815.256 184.846 815.942 184.753 816.598 184.899C817.253 185.046 817.834 185.423 818.235 185.961C818.466 186.27 818.63 186.625 818.715 187.001C818.801 187.377 818.806 187.768 818.731 188.146V188.144Z" fill="#0C018B"></path><path d="M786.567 164.375L785.395 175.385C785.348 175.822 785.417 176.264 785.595 176.666C785.774 177.068 786.055 177.416 786.411 177.675C786.767 177.933 787.185 178.094 787.622 178.139C788.06 178.185 788.502 178.114 788.903 177.935L799.011 173.418L809.119 177.935C809.52 178.113 809.962 178.184 810.4 178.138C810.837 178.092 811.255 177.932 811.611 177.674C811.967 177.416 812.249 177.068 812.427 176.666C812.605 176.264 812.674 175.822 812.627 175.385L811.455 164.375L818.876 156.156C819.171 155.83 819.374 155.432 819.466 155.001C819.558 154.571 819.534 154.125 819.399 153.706C819.263 153.288 819.019 152.913 818.692 152.619C818.365 152.325 817.966 152.122 817.536 152.031L806.702 149.744L801.179 140.148C800.96 139.767 800.644 139.45 800.263 139.23C799.882 139.01 799.451 138.894 799.011 138.894C798.571 138.894 798.139 139.01 797.759 139.23C797.378 139.45 797.062 139.767 796.842 140.148L791.319 149.744L780.487 152.031C780.057 152.122 779.658 152.325 779.331 152.619C779.004 152.913 778.76 153.288 778.624 153.706C778.488 154.125 778.465 154.571 778.557 155.001C778.649 155.432 778.852 155.83 779.147 156.156L786.567 164.375ZM793.449 154.411C793.793 154.338 794.118 154.194 794.403 153.987C794.687 153.78 794.925 153.516 795.101 153.211L799.012 146.413L802.925 153.211C803.28 153.826 803.881 154.264 804.576 154.411L812.249 156.031L806.994 161.852C806.758 162.113 806.58 162.421 806.472 162.756C806.363 163.09 806.326 163.444 806.363 163.794L807.193 171.591L800.033 168.391C799.712 168.248 799.364 168.174 799.012 168.174C798.66 168.174 798.312 168.248 797.991 168.391L790.831 171.591L791.661 163.794C791.698 163.444 791.662 163.09 791.553 162.756C791.444 162.421 791.266 162.113 791.03 161.852L785.775 156.031L793.449 154.411Z" fill="#0C018B"></path><defs><radialGradient id="paint0_radial_463_2183" cx="0" cy="0" r="1" gradientTransform="matrix(228.413 0 -123.852 -173.496 4.54651 176.183)" gradientUnits="userSpaceOnUse"><stop stop-color="#6EA1FF"></stop><stop offset="1" stop-color="#0C018B"></stop></radialGradient><radialGradient id="paint1_radial_463_2183" cx="0" cy="0" r="1" gradientTransform="matrix(-228.629 0 123.969 -172.182 673.406 175.273)" gradientUnits="userSpaceOnUse"><stop stop-color="#6EA1FF"></stop><stop offset="1" stop-color="#0C018B"></stop></radialGradient><clipPath id="clip0_463_2183"><rect width="80.0812" height="80.0812" fill="white" transform="translate(300.301 139.782)"></rect></clipPath><clipPath id="clip1_463_2183"><rect width="80.0812" height="80.0812" fill="white" transform="translate(522.345 136.142)"></rect></clipPath><clipPath id="clip2_463_2183"><rect width="80.0812" height="80.0812" fill="white" transform="translate(80.0781 136.142)"></rect></clipPath></defs></svg>